<mxfile host="Electron" modified="2024-08-28T06:42:37.762Z" agent="Mozilla/5.0 (Windows NT 10.0; Win64; x64) AppleWebKit/537.36 (KHTML, like Gecko) draw.io/24.2.5 Chrome/120.0.6099.109 Electron/28.1.0 Safari/537.36" etag="yQDNXZjL3jJCjks_LRao" version="24.2.5" type="device">
  <diagram name="第 1 页" id="yE5biSEFeWougYYDnWOO">
    <mxGraphModel dx="2074" dy="1196" grid="1" gridSize="10" guides="1" tooltips="1" connect="1" arrows="1" fold="1" page="1" pageScale="1" pageWidth="827" pageHeight="1169" math="0" shadow="0">
      <root>
        <mxCell id="0" />
        <mxCell id="1" parent="0" />
        <mxCell id="x1wkzDVrVADXhrk9ThXG-12" value="" style="edgeStyle=orthogonalEdgeStyle;rounded=0;orthogonalLoop=1;jettySize=auto;html=1;" parent="1" source="x1wkzDVrVADXhrk9ThXG-9" target="x1wkzDVrVADXhrk9ThXG-18" edge="1">
          <mxGeometry relative="1" as="geometry">
            <mxPoint x="310" y="341" as="targetPoint" />
          </mxGeometry>
        </mxCell>
        <mxCell id="x1wkzDVrVADXhrk9ThXG-9" value="&lt;b&gt;Aggregate (Single)&lt;/b&gt;" style="whiteSpace=wrap;html=1;rounded=0;fillColor=#dae8fc;strokeColor=#6c8ebf;" parent="1" vertex="1">
          <mxGeometry x="250" y="395" width="120" height="60" as="geometry" />
        </mxCell>
        <mxCell id="x1wkzDVrVADXhrk9ThXG-15" value="" style="edgeStyle=orthogonalEdgeStyle;rounded=0;orthogonalLoop=1;jettySize=auto;html=1;" parent="1" source="x1wkzDVrVADXhrk9ThXG-14" target="x1wkzDVrVADXhrk9ThXG-9" edge="1">
          <mxGeometry relative="1" as="geometry" />
        </mxCell>
        <mxCell id="x1wkzDVrVADXhrk9ThXG-14" value="" style="rounded=1;whiteSpace=wrap;html=1;fillColor=#d5e8d4;strokeColor=#82b366;" parent="1" vertex="1">
          <mxGeometry x="265" y="492" width="90" height="20" as="geometry" />
        </mxCell>
        <mxCell id="x1wkzDVrVADXhrk9ThXG-16" value="" style="rounded=1;whiteSpace=wrap;html=1;fillColor=#d5e8d4;strokeColor=#82b366;" parent="1" vertex="1">
          <mxGeometry x="265" y="522" width="90" height="20" as="geometry" />
        </mxCell>
        <mxCell id="x1wkzDVrVADXhrk9ThXG-17" value="Partition0" style="text;html=1;align=center;verticalAlign=middle;resizable=0;points=[];autosize=1;strokeColor=none;fillColor=none;" parent="1" vertex="1">
          <mxGeometry x="275" y="550" width="70" height="30" as="geometry" />
        </mxCell>
        <mxCell id="x1wkzDVrVADXhrk9ThXG-18" value="" style="rounded=1;whiteSpace=wrap;html=1;fillColor=#d5e8d4;strokeColor=#82b366;" parent="1" vertex="1">
          <mxGeometry x="265" y="330" width="90" height="20" as="geometry" />
        </mxCell>
        <mxCell id="x1wkzDVrVADXhrk9ThXG-19" value="Partition0" style="text;html=1;align=center;verticalAlign=middle;resizable=0;points=[];autosize=1;strokeColor=none;fillColor=none;" parent="1" vertex="1">
          <mxGeometry x="275" y="298" width="70" height="30" as="geometry" />
        </mxCell>
      </root>
    </mxGraphModel>
  </diagram>
</mxfile>
